<svg xmlns="http://www.w3.org/2000/svg" viewBox="0 0 512 512"><defs><style>.a{fill:none;stroke:#000;stroke-miterlimit:10;stroke-width:8px;}</style></defs><path class="a" d="M444.409,457.312,360.917,307.407l-6.194,30.066a19.979,19.979,0,0,1-6.966,11.49L404.231,461.91l-160.594,1.147a15.1,15.1,0,0,0-15,15.1h0a15.105,15.105,0,0,0,15.105,15.105H423.28A24.186,24.186,0,0,0,444.409,457.312Z"/><rect class="a" x="277.102" y="16.035" width="53.931" height="382.537" rx="16" transform="translate(48.087 -57.093) rotate(11.642)"/><path class="a" d="M330.1,79.1h32.915a16,16,0,0,1,16,16V339.03a16,16,0,0,1-16,16H330.1a0,0,0,0,1,0,0V79.1a0,0,0,0,1,0,0Z" transform="translate(51.096 -67.081) rotate(11.642)"/><rect class="a" x="64.5" y="462.576" width="130" height="32" rx="16"/></svg>