<?xml version="1.0" encoding="utf-8"?>
<!-- Generator: Adobe Illustrator 24.1.3, SVG Export Plug-In . SVG Version: 6.00 Build 0)  -->
<svg version="1.1" id="Capa_1" xmlns="http://www.w3.org/2000/svg" xmlns:xlink="http://www.w3.org/1999/xlink" x="0px" y="0px"
	 viewBox="0 0 49.8 49.8" style="enable-background:new 0 0 49.8 49.8;" xml:space="preserve">
<style type="text/css">
	.st0{fill:#FFFFFF;}
</style>
<g>
	<path class="st0" d="M7.3,42.5c4.7,4.7,12.3,4.7,17,0c3.4-3.4,4.3-8.2,2.9-12.5l2-2l-1.5-1.5l0,0l3.2-0.1l-0.4-2.7l0.4-0.4l3.4-0.1
		l-0.4-2.8l0.3-0.3l3,0.2l-0.3-3l0.6-0.6l3,0l0.5-3.5l0.9-0.9l2.3,0.9l0.4-3.6l-0.8-0.8L43.2,8l-17,17l-0.9-0.9l17-17l-2.6-2.6
		l-17,17l-1-1l-2,2c-4.2-1.5-9.1-0.5-12.5,2.9C2.6,30.2,2.6,37.8,7.3,42.5z M14.1,35.6c1.3,1.3,1.3,3.3,0,4.6s-3.3,1.3-4.6,0
		s-1.3-3.3,0-4.6S12.9,34.4,14.1,35.6z"/>
</g>
</svg>
