<?xml version="1.0" encoding="utf-8"?>
<!-- Generator: Adobe Illustrator 24.1.3, SVG Export Plug-In . SVG Version: 6.00 Build 0)  -->
<svg version="1.1" id="Capa_1" xmlns="http://www.w3.org/2000/svg" xmlns:xlink="http://www.w3.org/1999/xlink" x="0px" y="0px"
	 viewBox="0 0 480 480" style="enable-background:new 0 0 480 480;" xml:space="preserve">
<style type="text/css">
	.st0{fill:#FFFFFF;}
</style>
<g>
	<g>
		<path class="st0" d="M480,424c-1.4,1.4-176-69.4-176-69.4v-39.3l45.7-45.7c1.5-1.5,2.3-3.5,2.3-5.7v-24.4c18-2,32-17.1,32-35.6
			c0-15.3-9.7-28.3-23.2-33.5l4.8-4.8c1.5-1.5,2.3-3.5,2.3-5.7v-56c0-39.7-32.3-72-72-72h-0.6C284,12.4,262.8,0,240,0h-56
			c-4.4,0-8,3.6-8,8c0,8.3,1.6,16.5,4.7,24.1C142.5,33.8,112,65.4,112,104v56c0,2.1,0.8,4.2,2.3,5.7l4.8,4.8
			C105.7,175.7,96,188.7,96,204c0,18.5,14,33.6,32,35.6V264c0,2.1,0.8,4.2,2.3,5.7l45.7,45.7v39.3l-171,70c-3,1.2-5,4.2-5,7.4v40
			c0,4.4,3.6,8,8,8h472 M368,204c0,9.7-6.9,17.7-16,19.6v-39.2C361.1,186.3,368,194.3,368,204z M128,223.6c-9.1-1.9-16-9.9-16-19.6
			s6.9-17.7,16-19.6V223.6z M128,156.7V104c0-30.9,25.1-56,56-56h10.1c3,0,5.7-1.7,7.1-4.3c1.4-2.6,1.2-5.8-0.5-8.3
			c-4.1-5.9-6.8-12.5-8-19.4H240c18.4,0,35.4,10.8,43.3,27.4c1.3,2.8,4.1,4.6,7.2,4.6h5.5c30.9,0,56,25.1,56,56v52.7l-8,8l-8-8V104
			c0-2.2-0.9-4.4-2.6-5.9c-1.7-1.5-3.9-2.3-6.1-2.1L240,104L152.7,96c-2.2-0.2-4.5,0.5-6.1,2.1c-1.7,1.5-2.6,3.7-2.6,5.9v52.7l-8,8
			L128,156.7z M144,260.7V232v-52.7l13.7-13.7c1.5-1.5,2.3-3.5,2.3-5.7v-47.2l79.3,7.2c0.5,0,1,0,1.5,0l79.3-7.2V160
			c0,2.1,0.8,4.2,2.3,5.7l13.7,13.7V232v28.7L268.7,328h-57.4L144,260.7z M288,331.3v24.6l-48,34.3l-48-34.3v-24.6l10.3,10.3
			c1.5,1.5,3.5,2.3,5.7,2.3h64c2.1,0,4.2-0.8,5.7-2.3L288,331.3z M464,464H16v-26.6l166.9-68.3l52.4,37.4c1.4,1,3,1.5,4.6,1.5
			s3.3-0.5,4.6-1.5l52.4-37.4L464,437.4V464z"/>
	</g>
</g>
<g>
	<g>
		<rect x="232" y="424" class="st0" width="16" height="16"/>
	</g>
</g>
<g>
	<g>
		<path class="st0" d="M205.7,181.7l-11.3-11.3l-24,24c-3.1,3.1-3.1,8.2,0,11.3l24,24l11.3-11.3L187.3,200L205.7,181.7z"/>
	</g>
</g>
<g>
	<g>
		<path class="st0" d="M309.7,194.3l-24-24l-11.3,11.3l18.3,18.3l-18.3,18.3l11.3,11.3l24-24C312.8,202.5,312.8,197.5,309.7,194.3z"
			/>
	</g>
</g>
<g>
	<g>
		
			<rect x="204.2" y="192" transform="matrix(0.4472 -0.8944 0.8944 0.4472 -46.2323 325.2112)" class="st0" width="71.5" height="16"/>
	</g>
</g>
<g>
	<g>
		<rect x="232" y="256" class="st0" width="16" height="16"/>
	</g>
</g>
<g>
	<g>
		<rect x="264" y="256" class="st0" width="16" height="16"/>
	</g>
</g>
<g>
	<g>
		<rect x="200" y="256" class="st0" width="16" height="16"/>
	</g>
</g>
</svg>
